<?xml version="1.0" encoding="UTF-8"?><svg id="a" xmlns="http://www.w3.org/2000/svg" viewBox="0 0 150 150"><defs><style>.b{fill:#19404d;}.c{fill:none;}</style></defs><path class="c" d="M0,0H150V150H0V0Z"/><path class="b" d="M133.15,91.18c-19.31-1.12-30.57,27.58-38.08,27.58s12.35-23.67,16.74-33.1c12.16-26.31-24.86-48.28-50.62-6.98C93.62,19.26,100.22,19.46,95.54,19.26c-35.94,1.12-48.9,21.8-66.59,53.89-12,20.73-22.45,31.59-11.42,46.57,4.29,5.8,11.93,7.98,14.71,6.9,4.14-1.62,6.7-9.35,10.92-15.75,15.63-25.67,26.05-38.4,32.91-44.28,8.82-7.56,11.16-1.81,7.21,5.31-4.2,7.63-14.67,23.94-15.86,26.61-8.73,19.77,15.2,37.16,31.25,24.13,5.23-3.91,13.62-15.94,16.88-19.33,.99-1.02,2.11-.57,1.52,.49-8.28,14.71,10.6,30.94,24.82,18.38,13.85-12.16,5.74-30.15-8.73-31.01Z"/></svg>